# xmcd
#
# Track frame offsets: 
#        150
#        17270
#        27676
#        41108
#        53570
#        66847
#        77553
#        88954
#        101799
#        117771
#        129539
#        144312
#        157050
#        168909
#        182558
#        204122
#
# Disc length: 4440 seconds
#
# Revision: 0
# Processed by: cddbd v1.5.2PL0 Copyright (c) Steve Scherf et al.
# Submitted via: ExactAudioCopy v0.99pb4
#
DISCID=d1115610
DTITLE=The Cats - Cats
DYEAR=1968
DGENRE=country
TTITLE0=Lea
TTITLE1=Rainbow tree
TTITLE2=Lies
TTITLE3=In my room
TTITLE4=I've always tried to understand
TTITLE5=Anonymous mr Brown
TTITLE6=Excuse me
TTITLE7=Daybreak
TTITLE8=Vaya con dios
TTITLE9=I gotta know what's going on
TTITLE10=Times where when
TTITLE11=Remember the good times
TTITLE12=I feel good, I feel bad
TTITLE13=Turn around and start again
TTITLE14=I like the way
TTITLE15=Datatrack
EXTD=
EXTT0=
EXTT1=
EXTT2=
EXTT3=
EXTT4=
EXTT5=
EXTT6=
EXTT7=
EXTT8=
EXTT9=
EXTT10=
EXTT11=
EXTT12=
EXTT13=
EXTT14=
EXTT15=
PLAYORDER=
